<svg xmlns="http://www.w3.org/2000/svg" viewBox="0 0 512 512">
  <defs>
    <linearGradient id="bg" x1="0%" x2="100%" y1="0%" y2="100%">
      <stop offset="0%" stop-color="#0f172a" />
      <stop offset="100%" stop-color="#111827" />
    </linearGradient>
    <linearGradient id="accent" x1="0%" x2="100%" y1="0%" y2="100%">
      <stop offset="0%" stop-color="#34d399" />
      <stop offset="100%" stop-color="#14b8a6" />
    </linearGradient>
  </defs>
  <rect width="512" height="512" rx="112" fill="url(#bg)" />
  <path
    d="M140 272c0-75.1 60.9-136 136-136 42.6 0 80.7 19.6 105.6 50.2l-37.3 30.7C329.2 198.6 304.2 186 276 186c-47.5 0-86 38.5-86 86s38.5 86 86 86c35.8 0 66.5-21.8 79.5-52.8h-95.3v-47h149.3c1.4 8.3 2.1 16.8 2.1 25.4 0 75.1-60.9 136-136 136s-136-60.9-136-136Z"
    fill="url(#accent)"
  />
  <circle cx="372" cy="154" r="28" fill="#f8fafc" fill-opacity="0.92" />
</svg>
